<mxfile host="app.diagrams.net" modified="2021-09-01T09:20:03.059Z" agent="5.0 (Windows NT 10.0; Win64; x64) AppleWebKit/537.36 (KHTML, like Gecko) Chrome/92.0.4515.131 Safari/537.36" etag="J21cYowgtMptPeXFDI0W" version="15.0.4" type="github">
  <diagram id="QKZyI71MhQVoEyEMeEdd" name="Page-1">
    <mxGraphModel dx="782" dy="468" grid="1" gridSize="10" guides="1" tooltips="1" connect="1" arrows="1" fold="1" page="1" pageScale="1" pageWidth="827" pageHeight="1169" math="0" shadow="0">
      <root>
        <mxCell id="0" />
        <mxCell id="1" parent="0" />
        <mxCell id="V6JZE4q0PIBQp_onLyyd-3" value="Device" style="rounded=0;whiteSpace=wrap;html=1;" parent="1" vertex="1">
          <mxGeometry x="90" y="60" width="100" height="40" as="geometry" />
        </mxCell>
        <mxCell id="V6JZE4q0PIBQp_onLyyd-6" value="" style="endArrow=none;html=1;entryX=0.5;entryY=1;entryDx=0;entryDy=0;" parent="1" target="V6JZE4q0PIBQp_onLyyd-3" edge="1">
          <mxGeometry width="50" height="50" relative="1" as="geometry">
            <mxPoint x="140" y="380" as="sourcePoint" />
            <mxPoint x="430" y="150" as="targetPoint" />
            <Array as="points">
              <mxPoint x="140" y="140" />
            </Array>
          </mxGeometry>
        </mxCell>
        <mxCell id="V6JZE4q0PIBQp_onLyyd-7" value="Android" style="rounded=0;whiteSpace=wrap;html=1;" parent="1" vertex="1">
          <mxGeometry x="270" y="60" width="100" height="40" as="geometry" />
        </mxCell>
        <mxCell id="V6JZE4q0PIBQp_onLyyd-8" value="" style="endArrow=none;html=1;entryX=0.5;entryY=1;entryDx=0;entryDy=0;" parent="1" target="V6JZE4q0PIBQp_onLyyd-7" edge="1">
          <mxGeometry width="50" height="50" relative="1" as="geometry">
            <mxPoint x="320" y="530" as="sourcePoint" />
            <mxPoint x="610" y="150" as="targetPoint" />
          </mxGeometry>
        </mxCell>
        <mxCell id="V6JZE4q0PIBQp_onLyyd-9" value="IOT" style="rounded=0;whiteSpace=wrap;html=1;" parent="1" vertex="1">
          <mxGeometry x="512" y="60" width="100" height="40" as="geometry" />
        </mxCell>
        <mxCell id="V6JZE4q0PIBQp_onLyyd-10" value="" style="endArrow=none;html=1;entryX=0.5;entryY=1;entryDx=0;entryDy=0;" parent="1" target="V6JZE4q0PIBQp_onLyyd-9" edge="1">
          <mxGeometry width="50" height="50" relative="1" as="geometry">
            <mxPoint x="562" y="530" as="sourcePoint" />
            <mxPoint x="852" y="150" as="targetPoint" />
          </mxGeometry>
        </mxCell>
        <mxCell id="pdPROYeT5ZHWs4aKDkyA-5" style="edgeStyle=orthogonalEdgeStyle;rounded=0;orthogonalLoop=1;jettySize=auto;html=1;" edge="1" parent="1">
          <mxGeometry relative="1" as="geometry">
            <mxPoint x="150" y="148" as="sourcePoint" />
            <mxPoint x="311" y="148" as="targetPoint" />
          </mxGeometry>
        </mxCell>
        <mxCell id="pdPROYeT5ZHWs4aKDkyA-6" value="1连接上线" style="edgeLabel;html=1;align=center;verticalAlign=middle;resizable=0;points=[];fontSize=6;" vertex="1" connectable="0" parent="pdPROYeT5ZHWs4aKDkyA-5">
          <mxGeometry x="0.3232" y="-1" relative="1" as="geometry">
            <mxPoint x="-46" y="-9" as="offset" />
          </mxGeometry>
        </mxCell>
        <mxCell id="pdPROYeT5ZHWs4aKDkyA-1" value="" style="rounded=0;whiteSpace=wrap;html=1;" vertex="1" parent="1">
          <mxGeometry x="132.5" y="130" width="15" height="140" as="geometry" />
        </mxCell>
        <mxCell id="pdPROYeT5ZHWs4aKDkyA-9" style="edgeStyle=none;rounded=0;orthogonalLoop=1;jettySize=auto;html=1;" edge="1" parent="1">
          <mxGeometry relative="1" as="geometry">
            <mxPoint x="329" y="147" as="sourcePoint" />
            <mxPoint x="553" y="147" as="targetPoint" />
          </mxGeometry>
        </mxCell>
        <mxCell id="pdPROYeT5ZHWs4aKDkyA-2" value="" style="rounded=0;whiteSpace=wrap;html=1;" vertex="1" parent="1">
          <mxGeometry x="312.5" y="130" width="15" height="360" as="geometry" />
        </mxCell>
        <mxCell id="pdPROYeT5ZHWs4aKDkyA-13" style="edgeStyle=none;rounded=0;orthogonalLoop=1;jettySize=auto;html=1;fontSize=6;dashed=1;endArrow=classic;endFill=0;startArrow=none;" edge="1" parent="1" source="pdPROYeT5ZHWs4aKDkyA-15">
          <mxGeometry relative="1" as="geometry">
            <mxPoint x="330" y="175" as="targetPoint" />
            <mxPoint x="489" y="175" as="sourcePoint" />
            <Array as="points" />
          </mxGeometry>
        </mxCell>
        <mxCell id="pdPROYeT5ZHWs4aKDkyA-16" style="edgeStyle=none;rounded=0;orthogonalLoop=1;jettySize=auto;html=1;fontSize=6;endArrow=classic;endFill=0;startArrow=none;exitX=0;exitY=0.5;exitDx=0;exitDy=0;" edge="1" parent="1" source="pdPROYeT5ZHWs4aKDkyA-14">
          <mxGeometry relative="1" as="geometry">
            <mxPoint x="400" y="222" as="sourcePoint" />
            <mxPoint x="330" y="222" as="targetPoint" />
          </mxGeometry>
        </mxCell>
        <mxCell id="pdPROYeT5ZHWs4aKDkyA-17" style="edgeStyle=none;rounded=0;orthogonalLoop=1;jettySize=auto;html=1;fontSize=6;endArrow=classic;endFill=0;exitX=0;exitY=0.5;exitDx=0;exitDy=0;startArrow=none;" edge="1" parent="1" source="pdPROYeT5ZHWs4aKDkyA-21">
          <mxGeometry relative="1" as="geometry">
            <mxPoint x="554.5" y="266" as="sourcePoint" />
            <mxPoint x="330" y="266" as="targetPoint" />
          </mxGeometry>
        </mxCell>
        <mxCell id="pdPROYeT5ZHWs4aKDkyA-28" style="edgeStyle=orthogonalEdgeStyle;rounded=0;orthogonalLoop=1;jettySize=auto;html=1;exitX=1;exitY=0.5;exitDx=0;exitDy=0;fontSize=6;endArrow=block;endFill=1;" edge="1" parent="1" source="pdPROYeT5ZHWs4aKDkyA-3">
          <mxGeometry relative="1" as="geometry">
            <mxPoint x="571" y="230" as="targetPoint" />
            <Array as="points">
              <mxPoint x="570" y="180" />
              <mxPoint x="600" y="180" />
              <mxPoint x="600" y="230" />
            </Array>
          </mxGeometry>
        </mxCell>
        <mxCell id="pdPROYeT5ZHWs4aKDkyA-3" value="" style="rounded=0;whiteSpace=wrap;html=1;" vertex="1" parent="1">
          <mxGeometry x="554.5" y="130" width="15" height="60" as="geometry" />
        </mxCell>
        <mxCell id="pdPROYeT5ZHWs4aKDkyA-10" value="2设备认证" style="text;html=1;strokeColor=none;fillColor=none;align=center;verticalAlign=middle;whiteSpace=wrap;rounded=0;fontSize=7;" vertex="1" parent="1">
          <mxGeometry x="346" y="130" width="68" height="20" as="geometry" />
        </mxCell>
        <mxCell id="pdPROYeT5ZHWs4aKDkyA-14" value="&lt;span style=&quot;font-size: 7px&quot;&gt;3&lt;/span&gt;&lt;span style=&quot;font-size: 7px ; background-color: rgb(255 , 255 , 255) ; color: rgb(23 , 43 , 77)&quot;&gt;设备&amp;amp;模型下发&lt;/span&gt;" style="text;html=1;strokeColor=none;fillColor=none;align=center;verticalAlign=middle;whiteSpace=wrap;rounded=0;fontSize=6;" vertex="1" parent="1">
          <mxGeometry x="392" y="212" width="92" height="20" as="geometry" />
        </mxCell>
        <mxCell id="pdPROYeT5ZHWs4aKDkyA-18" value="" style="edgeStyle=none;rounded=0;orthogonalLoop=1;jettySize=auto;html=1;fontSize=6;endArrow=none;endFill=0;entryX=1;entryY=0.5;entryDx=0;entryDy=0;" edge="1" parent="1" target="pdPROYeT5ZHWs4aKDkyA-14">
          <mxGeometry relative="1" as="geometry">
            <mxPoint x="551" y="223" as="sourcePoint" />
            <mxPoint x="492" y="223" as="targetPoint" />
          </mxGeometry>
        </mxCell>
        <mxCell id="pdPROYeT5ZHWs4aKDkyA-15" value="2.1认证失败/成功" style="text;html=1;strokeColor=none;fillColor=none;align=center;verticalAlign=middle;whiteSpace=wrap;rounded=0;fontSize=6;" vertex="1" parent="1">
          <mxGeometry x="392" y="165" width="98" height="20" as="geometry" />
        </mxCell>
        <mxCell id="pdPROYeT5ZHWs4aKDkyA-19" value="" style="edgeStyle=none;rounded=0;orthogonalLoop=1;jettySize=auto;html=1;fontSize=6;dashed=1;endArrow=none;endFill=0;" edge="1" parent="1" target="pdPROYeT5ZHWs4aKDkyA-15">
          <mxGeometry relative="1" as="geometry">
            <mxPoint x="488" y="175" as="targetPoint" />
            <mxPoint x="551" y="175" as="sourcePoint" />
            <Array as="points" />
          </mxGeometry>
        </mxCell>
        <mxCell id="pdPROYeT5ZHWs4aKDkyA-21" value="4地图点位下发" style="text;html=1;strokeColor=none;fillColor=none;align=center;verticalAlign=middle;whiteSpace=wrap;rounded=0;fontSize=6;" vertex="1" parent="1">
          <mxGeometry x="392" y="256" width="82" height="20" as="geometry" />
        </mxCell>
        <mxCell id="pdPROYeT5ZHWs4aKDkyA-22" value="" style="edgeStyle=none;rounded=0;orthogonalLoop=1;jettySize=auto;html=1;fontSize=6;endArrow=none;endFill=0;exitX=0;exitY=0.5;exitDx=0;exitDy=0;" edge="1" parent="1" target="pdPROYeT5ZHWs4aKDkyA-21">
          <mxGeometry relative="1" as="geometry">
            <mxPoint x="554.5" y="266" as="sourcePoint" />
            <mxPoint x="330" y="266" as="targetPoint" />
          </mxGeometry>
        </mxCell>
        <mxCell id="pdPROYeT5ZHWs4aKDkyA-23" value="" style="rounded=0;whiteSpace=wrap;html=1;" vertex="1" parent="1">
          <mxGeometry x="554.5" y="215" width="15" height="285" as="geometry" />
        </mxCell>
        <mxCell id="pdPROYeT5ZHWs4aKDkyA-29" value="认证成功" style="text;html=1;strokeColor=none;fillColor=none;align=center;verticalAlign=middle;whiteSpace=wrap;rounded=0;fontSize=6;" vertex="1" parent="1">
          <mxGeometry x="600" y="195" width="50" height="20" as="geometry" />
        </mxCell>
      </root>
    </mxGraphModel>
  </diagram>
</mxfile>
